<mxfile host="Electron" modified="2023-08-16T10:47:58.215Z" agent="Mozilla/5.0 (X11; Linux x86_64) AppleWebKit/537.36 (KHTML, like Gecko) draw.io/21.2.8 Chrome/112.0.5615.165 Electron/24.2.0 Safari/537.36" etag="kG5QpZMmPXrdOt6lLDRD" version="21.2.8" type="device">
  <diagram name="Page-1" id="-huef07_yEiH96Ht4RWT">
    <mxGraphModel dx="989" dy="521" grid="1" gridSize="10" guides="1" tooltips="1" connect="1" arrows="1" fold="1" page="1" pageScale="1" pageWidth="6000" pageHeight="6000" math="0" shadow="0">
      <root>
        <mxCell id="0" />
        <mxCell id="1" parent="0" />
        <mxCell id="FJ56Mtfeylfau0ke3cTp-13" value="Vertical Flow Layout" style="swimlane;startSize=20;horizontal=1;childLayout=flowLayout;flowOrientation=north;resizable=0;interRankCellSpacing=50;containerType=tree;fontSize=12;" parent="1" vertex="1">
          <mxGeometry x="610" y="90" width="450" height="260" as="geometry" />
        </mxCell>
        <mxCell id="FJ56Mtfeylfau0ke3cTp-14" value="User / Products" style="whiteSpace=wrap;html=1;" parent="FJ56Mtfeylfau0ke3cTp-13" vertex="1">
          <mxGeometry x="132.5" y="40" width="175" height="70" as="geometry" />
        </mxCell>
        <mxCell id="FJ56Mtfeylfau0ke3cTp-15" value="product data" style="whiteSpace=wrap;html=1;" parent="FJ56Mtfeylfau0ke3cTp-13" vertex="1">
          <mxGeometry x="20" y="164" width="180" height="72" as="geometry" />
        </mxCell>
        <mxCell id="FJ56Mtfeylfau0ke3cTp-16" value="" style="html=1;rounded=1;curved=0;sourcePerimeterSpacing=0;targetPerimeterSpacing=0;startSize=6;endSize=6;noEdgeStyle=1;orthogonal=1;" parent="FJ56Mtfeylfau0ke3cTp-13" source="FJ56Mtfeylfau0ke3cTp-14" target="FJ56Mtfeylfau0ke3cTp-15" edge="1">
          <mxGeometry relative="1" as="geometry">
            <Array as="points">
              <mxPoint x="178.75" y="122" />
              <mxPoint x="110" y="148" />
            </Array>
          </mxGeometry>
        </mxCell>
        <mxCell id="FJ56Mtfeylfau0ke3cTp-17" value="user id" style="whiteSpace=wrap;html=1;" parent="FJ56Mtfeylfau0ke3cTp-13" vertex="1">
          <mxGeometry x="230" y="160" width="200" height="80" as="geometry" />
        </mxCell>
        <mxCell id="FJ56Mtfeylfau0ke3cTp-18" value="" style="html=1;rounded=1;curved=0;sourcePerimeterSpacing=0;targetPerimeterSpacing=0;startSize=6;endSize=6;noEdgeStyle=1;orthogonal=1;" parent="FJ56Mtfeylfau0ke3cTp-13" source="FJ56Mtfeylfau0ke3cTp-14" target="FJ56Mtfeylfau0ke3cTp-17" edge="1">
          <mxGeometry relative="1" as="geometry">
            <Array as="points">
              <mxPoint x="261.25" y="122" />
              <mxPoint x="330" y="148" />
            </Array>
          </mxGeometry>
        </mxCell>
        <mxCell id="FJ56Mtfeylfau0ke3cTp-25" style="edgeStyle=orthogonalEdgeStyle;rounded=0;orthogonalLoop=1;jettySize=auto;html=1;entryX=1;entryY=0.5;entryDx=0;entryDy=0;" parent="1" source="FJ56Mtfeylfau0ke3cTp-19" target="FJ56Mtfeylfau0ke3cTp-24" edge="1">
          <mxGeometry relative="1" as="geometry" />
        </mxCell>
        <mxCell id="FJ56Mtfeylfau0ke3cTp-26" value="&lt;font style=&quot;font-size: 16px;&quot;&gt;retreive data&amp;nbsp;&lt;/font&gt;" style="edgeLabel;html=1;align=center;verticalAlign=middle;resizable=0;points=[];" parent="FJ56Mtfeylfau0ke3cTp-25" vertex="1" connectable="0">
          <mxGeometry x="0.2356" y="5" relative="1" as="geometry">
            <mxPoint x="24" y="-5" as="offset" />
          </mxGeometry>
        </mxCell>
        <mxCell id="FJ56Mtfeylfau0ke3cTp-19" value="store on database" style="whiteSpace=wrap;html=1;" parent="1" vertex="1">
          <mxGeometry x="742.5" y="490" width="180" height="72" as="geometry" />
        </mxCell>
        <mxCell id="FJ56Mtfeylfau0ke3cTp-20" value="" style="html=1;rounded=1;curved=0;sourcePerimeterSpacing=0;targetPerimeterSpacing=0;startSize=6;endSize=6;noEdgeStyle=1;orthogonal=1;entryX=0.5;entryY=0;entryDx=0;entryDy=0;" parent="1" source="FJ56Mtfeylfau0ke3cTp-15" target="FJ56Mtfeylfau0ke3cTp-19" edge="1">
          <mxGeometry relative="1" as="geometry">
            <Array as="points">
              <mxPoint x="720" y="342" />
              <mxPoint x="787.5" y="368" />
            </Array>
          </mxGeometry>
        </mxCell>
        <mxCell id="FJ56Mtfeylfau0ke3cTp-23" value="&lt;font style=&quot;font-size: 19px;&quot;&gt;Store&lt;/font&gt;" style="edgeLabel;html=1;align=center;verticalAlign=middle;resizable=0;points=[];" parent="FJ56Mtfeylfau0ke3cTp-20" vertex="1" connectable="0">
          <mxGeometry x="0.2108" y="5" relative="1" as="geometry">
            <mxPoint x="-2" as="offset" />
          </mxGeometry>
        </mxCell>
        <mxCell id="FJ56Mtfeylfau0ke3cTp-21" value="" style="html=1;rounded=1;curved=0;sourcePerimeterSpacing=0;targetPerimeterSpacing=0;startSize=6;endSize=6;noEdgeStyle=1;orthogonal=1;entryX=0.5;entryY=0;entryDx=0;entryDy=0;" parent="1" source="FJ56Mtfeylfau0ke3cTp-17" target="FJ56Mtfeylfau0ke3cTp-19" edge="1">
          <mxGeometry relative="1" as="geometry">
            <Array as="points">
              <mxPoint x="940" y="342" />
              <mxPoint x="872.5" y="368" />
            </Array>
          </mxGeometry>
        </mxCell>
        <mxCell id="FJ56Mtfeylfau0ke3cTp-22" value="&lt;font style=&quot;font-size: 17px;&quot;&gt;Store&lt;/font&gt;" style="edgeLabel;html=1;align=center;verticalAlign=middle;resizable=0;points=[];" parent="FJ56Mtfeylfau0ke3cTp-21" vertex="1" connectable="0">
          <mxGeometry x="0.2343" y="4" relative="1" as="geometry">
            <mxPoint y="-4" as="offset" />
          </mxGeometry>
        </mxCell>
        <mxCell id="FJ56Mtfeylfau0ke3cTp-28" style="edgeStyle=orthogonalEdgeStyle;rounded=0;orthogonalLoop=1;jettySize=auto;html=1;" parent="1" source="FJ56Mtfeylfau0ke3cTp-24" edge="1">
          <mxGeometry relative="1" as="geometry">
            <mxPoint x="400" y="400" as="targetPoint" />
          </mxGeometry>
        </mxCell>
        <mxCell id="FJ56Mtfeylfau0ke3cTp-24" value="products data with userId" style="whiteSpace=wrap;html=1;" parent="1" vertex="1">
          <mxGeometry x="310" y="490" width="180" height="72" as="geometry" />
        </mxCell>
        <mxCell id="FJ56Mtfeylfau0ke3cTp-30" style="edgeStyle=orthogonalEdgeStyle;rounded=0;orthogonalLoop=1;jettySize=auto;html=1;entryX=0.506;entryY=0.909;entryDx=0;entryDy=0;entryPerimeter=0;" parent="1" source="FJ56Mtfeylfau0ke3cTp-27" target="FJ56Mtfeylfau0ke3cTp-29" edge="1">
          <mxGeometry relative="1" as="geometry" />
        </mxCell>
        <mxCell id="FJ56Mtfeylfau0ke3cTp-31" value="&lt;font style=&quot;font-size: 17px;&quot;&gt;display&lt;/font&gt;" style="edgeLabel;html=1;align=center;verticalAlign=middle;resizable=0;points=[];" parent="FJ56Mtfeylfau0ke3cTp-30" vertex="1" connectable="0">
          <mxGeometry x="-0.2825" relative="1" as="geometry">
            <mxPoint y="-19" as="offset" />
          </mxGeometry>
        </mxCell>
        <mxCell id="FJ56Mtfeylfau0ke3cTp-27" value="store in an array" style="whiteSpace=wrap;html=1;" parent="1" vertex="1">
          <mxGeometry x="310" y="320" width="180" height="72" as="geometry" />
        </mxCell>
        <mxCell id="FJ56Mtfeylfau0ke3cTp-29" value="" style="html=1;verticalLabelPosition=bottom;align=center;labelBackgroundColor=#ffffff;verticalAlign=top;strokeWidth=2;strokeColor=#0080F0;shadow=0;dashed=0;shape=mxgraph.ios7.icons.monitor;" parent="1" vertex="1">
          <mxGeometry x="315.38" y="90" width="169.23" height="110" as="geometry" />
        </mxCell>
        <mxCell id="T7fbBU3JnU_o1J6l_MFk-3" style="edgeStyle=orthogonalEdgeStyle;rounded=0;orthogonalLoop=1;jettySize=auto;html=1;entryX=0;entryY=0.5;entryDx=0;entryDy=0;entryPerimeter=0;" edge="1" parent="1" source="T7fbBU3JnU_o1J6l_MFk-1" target="T7fbBU3JnU_o1J6l_MFk-2">
          <mxGeometry relative="1" as="geometry" />
        </mxCell>
        <mxCell id="T7fbBU3JnU_o1J6l_MFk-4" value="stored after purchase" style="edgeLabel;html=1;align=center;verticalAlign=middle;resizable=0;points=[];" vertex="1" connectable="0" parent="T7fbBU3JnU_o1J6l_MFk-3">
          <mxGeometry x="-0.1267" relative="1" as="geometry">
            <mxPoint as="offset" />
          </mxGeometry>
        </mxCell>
        <mxCell id="T7fbBU3JnU_o1J6l_MFk-1" value="Products" style="html=1;whiteSpace=wrap;strokeColor=none;fillColor=#0079D6;labelPosition=center;verticalLabelPosition=middle;verticalAlign=top;align=center;fontSize=12;outlineConnect=0;spacingTop=-6;fontColor=#FFFFFF;sketch=0;shape=mxgraph.sitemap.products;" vertex="1" parent="1">
          <mxGeometry x="1380" y="170" width="120" height="70" as="geometry" />
        </mxCell>
        <mxCell id="T7fbBU3JnU_o1J6l_MFk-6" style="edgeStyle=orthogonalEdgeStyle;rounded=0;orthogonalLoop=1;jettySize=auto;html=1;entryX=0.462;entryY=0.112;entryDx=0;entryDy=0;entryPerimeter=0;" edge="1" parent="1" source="T7fbBU3JnU_o1J6l_MFk-2" target="T7fbBU3JnU_o1J6l_MFk-5">
          <mxGeometry relative="1" as="geometry" />
        </mxCell>
        <mxCell id="T7fbBU3JnU_o1J6l_MFk-7" value="display most recent&amp;nbsp; orders" style="edgeLabel;html=1;align=center;verticalAlign=middle;resizable=0;points=[];" vertex="1" connectable="0" parent="T7fbBU3JnU_o1J6l_MFk-6">
          <mxGeometry x="-0.2782" y="1" relative="1" as="geometry">
            <mxPoint as="offset" />
          </mxGeometry>
        </mxCell>
        <mxCell id="T7fbBU3JnU_o1J6l_MFk-2" value="" style="strokeWidth=2;html=1;shape=mxgraph.flowchart.database;whiteSpace=wrap;" vertex="1" parent="1">
          <mxGeometry x="1800" y="172.5" width="65" height="65" as="geometry" />
        </mxCell>
        <mxCell id="T7fbBU3JnU_o1J6l_MFk-5" value="" style="sketch=0;pointerEvents=1;shadow=0;dashed=0;html=1;strokeColor=none;labelPosition=center;verticalLabelPosition=bottom;verticalAlign=top;align=center;fillColor=#505050;shape=mxgraph.mscae.oms.dashboard" vertex="1" parent="1">
          <mxGeometry x="1790" y="340" width="90.24" height="74" as="geometry" />
        </mxCell>
      </root>
    </mxGraphModel>
  </diagram>
</mxfile>
